<svg width="15" height="16" viewBox="0 0 15 16" fill="none" xmlns="http://www.w3.org/2000/svg">
<path opacity="0.5" d="M7.00004 0.5C7.46029 0.5 7.83337 0.8731 7.83337 1.33333C7.83337 1.76069 7.51168 2.11292 7.09723 2.16106L7.00004 2.16667H2.83337C2.40601 2.16667 2.05379 2.48837 2.00565 2.90282L2.00004 3V13C2.00004 13.4274 2.32174 13.7796 2.73619 13.8277L2.83337 13.8333H6.58337C7.04362 13.8333 7.41671 14.2064 7.41671 14.6667C7.41671 15.094 7.09502 15.4463 6.68056 15.4944L6.58337 15.5H2.83337C1.50198 15.5 0.413657 14.4593 0.337618 13.1469L0.333374 13V3C0.333374 1.6686 1.37414 0.580283 2.68648 0.504244L2.83337 0.5H7.00004ZM11.7559 5.05372L14.113 7.41075C14.4384 7.73617 14.4384 8.26383 14.113 8.58925L11.7559 10.9462C11.4305 11.2717 10.9029 11.2717 10.5774 10.9462C10.252 10.6208 10.252 10.0932 10.5774 9.76775L11.5119 8.83333H7.00004C6.53979 8.83333 6.16671 8.46025 6.16671 8C6.16671 7.53975 6.53979 7.16667 7.00004 7.16667H11.5119L10.5774 6.23223C10.252 5.9068 10.252 5.37916 10.5774 5.05372C10.9029 4.72828 11.4305 4.72828 11.7559 5.05372Z" fill="white"/>
</svg>
